<?xml version="1.0" standalone="no"?>
<!DOCTYPE svg PUBLIC "-//W3C//DTD SVG 1.1//EN" "http://www.w3.org/Graphics/SVG/1.1/DTD/svg11.dtd">
<svg fill="rgba(3,47,98,.5)" viewBox="0 0 12 16" 
	width="12" height="16"
	version="1.1" xmlns="http://www.w3.org/2000/svg" 
	xmlns:xlink="http://www.w3.org/1999/xlink" >
	<defs>
		<style type="text/css"></style>
	</defs>
	>
		<path fill-rule="evenodd" d="M4 12h1v1H2v-1h1v-2H2V9h2v3zm8-7.5V14c0 .55-.45 1-1 1H1c-.55 0-1-.45-1-1V2c0-.55.45-1 1-1h7.5L12 4.5zM11 5L8 2H1v12h10V5zM8 4H6v1h1v2H6v1h3V7H8V4zM2 4h3v4H2V4zm1 3h1V5H3v2zm3 2h3v4H6V9zm1 3h1v-2H7v2z"></path>
	</svg>